<?xml version="1.0" standalone="no"?>
<!DOCTYPE svg PUBLIC "-//W3C//DTD SVG 20010904//EN"
 "http://www.w3.org/TR/2001/REC-SVG-20010904/DTD/svg10.dtd">
<svg version="1.0" xmlns="http://www.w3.org/2000/svg"
 width="32.000000pt" height="32.000000pt" viewBox="0 0 32.000000 32.000000"
 preserveAspectRatio="xMidYMid meet">

<g transform="translate(0.000000,32.000000) scale(0.100000,-0.100000)"
fill="#000000" stroke="none">
<path d="M165 286 c-9 -13 -29 -30 -46 -36 -89 -37 -106 -141 -36 -217 11 -13
26 -23 33 -23 6 0 -3 15 -22 34 -30 30 -34 40 -34 86 0 44 4 56 29 81 37 37
54 38 41 3 -13 -32 -13 -30 6 -48 10 -11 24 -14 41 -10 23 6 24 5 14 -13 -6
-13 -25 -23 -50 -27 -22 -3 -43 -11 -46 -16 -4 -7 7 -8 32 -4 36 5 39 4 50
-25 14 -38 56 -56 98 -43 17 6 22 10 13 11 -10 1 -18 7 -18 14 0 16 -42 57
-58 57 -19 0 -14 21 15 58 22 30 24 34 7 28 -85 -35 -104 -30 -87 20 10 30 34
41 91 43 17 1 32 5 32 10 0 15 -18 23 -25 11 -7 -12 -65 -14 -65 -2 0 4 5 13
12 20 9 9 9 12 0 12 -6 0 -19 -11 -27 -24z m73 -213 c23 -23 24 -28 10 -31
-26 -5 -58 16 -58 38 0 27 16 25 48 -7z"/>
</g>
</svg>
